<svg width="56" height="56" viewBox="0 0 56 56" fill="none" xmlns="http://www.w3.org/2000/svg">
<path d="M37.7007 25.6645C37.4703 24.8655 36.35 21.3202 32.6604 19.1759C28.1654 16.5651 23.567 18.1873 22.9643 18.4116C23.7426 18.2091 24.5422 18.4536 24.9809 19.0226C25.35 19.4995 25.3229 20.0572 25.304 20.3711C25.2425 21.4283 24.575 22.1466 23.7918 22.9916C22.9872 23.8575 22.3976 24.1408 22.0335 24.2764C21.347 24.5282 20.9804 24.4257 20.8435 24.3773C20.5294 24.2635 20.2675 24.0424 20.1054 23.7542C19.7044 22.9867 20.2653 21.9174 20.9198 21.4897C21.21 21.3033 21.5441 21.1938 21.8899 21.1717C21.9982 21.1697 22.1065 21.1784 22.2131 21.1975C21.9338 21.3843 21.6889 21.6166 21.4889 21.8843C21.2601 22.1926 21.2273 22.3686 21.2175 22.4565C21.2076 22.5445 21.1748 22.8286 21.3593 23.0166C21.3864 23.044 21.4963 23.149 21.812 23.1821C22.1849 23.2134 22.5587 23.1335 22.8847 22.9529C23.1991 22.7755 23.4617 22.5214 23.6474 22.2152C23.7663 22.0207 24.0755 21.5147 23.932 20.8925C23.8728 20.6173 23.7338 20.365 23.5318 20.1661C23.1349 19.786 22.6149 19.7626 22.3016 19.7465C21.0116 19.6851 19.9053 20.5406 19.5092 20.8763C19.0278 21.2879 17.6229 22.6389 17.7123 24.4765C17.7296 24.8244 17.7656 25.5378 18.2807 26.1181C18.7727 26.6717 19.4895 26.8638 20.2842 26.9324C21.9383 27.0752 23.1472 26.6184 25.6624 25.7622C26.3849 25.5201 28.5205 24.7937 31.1571 24.1731C31.9772 23.9802 32.9777 23.7639 34.221 23.9697C35.0546 24.0992 35.849 24.4078 36.5476 24.8736C37.002 25.1813 37.4072 25.554 37.7499 25.9793C37.7433 25.8731 37.7269 25.7677 37.7007 25.6645Z" fill="white"/>
<path d="M30.9064 29.8636C32.7346 29.1218 34.5299 28.2704 36.2362 27.2317C37.9425 26.193 39.4545 24.9405 40.9599 23.5958C41.5009 23.1116 42.1952 22.4209 42.1227 21.5686C42.0782 21.0205 41.7233 20.6322 41.6549 20.5637C41.3206 20.2102 40.9138 20.1069 39.9412 20.0448C38.9592 19.9795 37.974 19.9987 36.9947 20.1024C36.5121 20.1572 35.8418 20.2467 35.0479 20.4047L33.4511 18.8252C33.5623 18.9349 34.4805 18.6608 34.6526 18.6334C35.1195 18.5585 35.5873 18.4836 36.0526 18.4123C36.9214 18.2789 37.7902 18.1538 38.6615 18.0469C39.9923 17.8837 41.328 17.7838 42.6687 17.7473C43.7944 17.7198 45.2125 17.5344 46.1843 18.3073C46.4898 18.5503 46.7797 18.902 46.904 19.2144C47.3866 20.4166 45.9298 22.2693 45.2298 23.1024C42.2652 26.6296 38.7158 28.7271 37.091 29.6471C34.7986 30.9444 32.4455 32.1053 30.0417 33.1249C30.3311 32.0378 30.6193 30.9507 30.9064 29.8636Z" fill="#B2B5BE"/>
<path d="M15.1667 28.2756C15.1995 28.7927 15.232 29.3097 15.2643 29.8267C14.5418 30.4967 13.883 31.234 13.2967 32.0288C12.9589 32.4888 12.699 32.8982 12.6244 33.4686C12.6015 33.648 12.5277 34.2118 12.8056 34.7249C13.145 35.3618 13.8525 35.6026 14.3657 35.733C17.3991 36.5027 20.8013 35.8642 20.8013 35.8642C25.5858 34.9649 27.9789 34.5157 28.4773 34.3695C31.3266 33.5349 34.0951 32.4396 36.7485 31.0971C38.8609 30.0412 40.8914 28.8249 42.8226 27.4586C43.9162 26.6764 44.8066 25.9639 45.4583 25.4167C43.0511 27.7599 40.3791 29.8071 37.4979 31.5156C37.1765 31.7066 35.8582 32.4846 34.1636 33.2959C34.1636 33.2959 27.9043 36.31 20.1299 37.4717C18.8181 37.6418 17.4975 37.7336 16.1751 37.7465C15.1741 37.7623 13.7566 37.7465 12.1047 37.2359C10.9667 36.8863 10.5355 36.5558 10.2822 36.1365C9.83457 35.3967 10.0297 34.5298 10.1272 34.0947C10.7585 31.2823 14.4666 28.7448 15.1667 28.2756Z" fill="#B2B5BE"/>
<path d="M33.1251 33.627L30.0417 34.6667C30.201 34.3085 30.439 33.9906 30.7383 33.7365C30.9147 33.5869 31.7096 32.9167 32.5129 33.1897C32.7538 33.2758 32.9659 33.4273 33.1251 33.627Z" fill="white"/>
<path d="M16.0749 25.1931C16.0093 25.4182 15.5538 27.0617 16.5734 28.5289C17.6831 30.1245 19.6045 30.1707 19.8975 30.1774C20.3355 30.1848 20.772 30.1245 21.1916 29.9985C24.4053 29.1142 27.1796 28.2962 28.9562 27.9133C30.0331 27.6815 31.0611 27.3624 32.4394 27.4371C33.0171 27.4689 33.5905 27.5552 34.152 27.6949L30.7967 28.9169C30.7387 28.9383 30.6867 28.9734 30.6453 29.0191C30.6038 29.0649 30.574 29.12 30.5584 29.1797C30.3463 30.0078 30.1338 30.8356 29.9211 31.6631C29.8218 32.0539 29.615 32.4093 29.3241 32.6893C29.0334 32.9664 28.7763 33.2764 28.5579 33.6131C28.4 33.8469 28.266 34.0959 28.158 34.3563C25.7542 34.9224 21.9173 35.585 18.6833 35.9764C17.7031 34.9986 16.9252 33.838 16.394 32.5608C15.838 31.1865 15.567 29.7141 15.5975 28.2324C15.6163 27.2023 15.777 26.1796 16.0749 25.1931Z" fill="white"/>
<path d="M36.72 29.7188L33.3757 31.327C33.6543 31.6009 33.8793 31.9241 34.0392 32.2802C34.0687 32.3482 34.0956 32.4137 34.1183 32.4792L37.0257 31.2304C37.1187 30.7061 37.0095 30.1661 36.72 29.7188Z" fill="white"/>
<path d="M36.6466 32.9504L33.7258 34.4218C33.5307 34.7301 33.2616 34.985 32.9428 35.1634C32.4933 35.4072 31.974 35.4913 31.4702 35.4019L29.2937 36.2089C29.8009 36.6641 30.4185 36.9791 31.0854 37.1226C32.4225 37.4006 33.4867 36.8514 33.9119 36.6322C35.9612 35.5749 36.543 33.3745 36.6466 32.9504Z" fill="white"/>
<path d="M21.4272 37.9834C23.239 37.789 25.0291 37.4301 26.7754 36.9109C26.9635 36.8549 27.1495 36.7976 27.3336 36.7388C27.4218 37.2415 27.6359 37.7138 27.956 38.1118C28.2762 38.5098 28.692 38.8207 29.1649 39.0155C26.545 39.607 23.7993 39.2407 21.4272 37.9834Z" fill="white"/>
</svg>
