<svg width="56" height="56" viewBox="0 0 56 56" fill="none" xmlns="http://www.w3.org/2000/svg">
<path d="M44.1908 39.5971C44.1935 39.5954 42.091 34.7032 42.0908 34.6967C41.9548 34.3786 41.7283 34.1073 41.4395 33.9168C41.1506 33.7263 40.8122 33.6248 40.4662 33.625H36.2401C36.3272 33.4109 36.3712 33.1817 36.3694 32.9505C36.3676 32.7194 36.3202 32.4909 36.2298 32.2781L33.6483 26.2543C33.5123 25.9362 33.2859 25.6651 32.9971 25.4746C32.7083 25.2842 32.3699 25.1828 32.024 25.1831H23.9754C23.6295 25.1828 23.2911 25.2842 23.0023 25.4746C22.7135 25.6651 22.487 25.9362 22.3511 26.2543L19.7696 32.2781C19.6792 32.4909 19.6317 32.7194 19.63 32.9505C19.6282 33.1817 19.6722 33.4109 19.7593 33.625H15.5332C15.1872 33.6248 14.8488 33.7262 14.56 33.9168C14.2712 34.1073 14.0448 34.3785 13.9089 34.6967L11.3274 40.72C11.2153 40.9889 11.1709 41.2813 11.1983 41.5714C11.2256 41.8615 11.3238 42.1405 11.4843 42.3837C11.6447 42.627 11.8624 42.8271 12.1183 42.9665C12.3742 43.1059 12.6604 43.1802 12.9518 43.1831L26.1633 43.1831C26.4558 43.1832 26.7437 43.1106 27.0012 42.972C27.2587 42.8334 27.4777 42.6331 27.6387 42.3889C27.7997 42.1448 27.8976 41.8645 27.9236 41.5732C27.9496 41.282 27.9029 40.9888 27.7877 40.72L25.2255 34.7412H30.7742L28.2117 40.72C28.0965 40.9888 28.0498 41.282 28.0758 41.5732C28.1018 41.8645 28.1997 42.1448 28.3607 42.3889C28.5217 42.6331 28.7407 42.8334 28.9982 42.972C29.2557 43.1106 29.5436 43.1832 29.8361 43.1831H43.0477C43.339 43.1803 43.6253 43.1059 43.8811 42.9665C44.137 42.8271 44.3547 42.627 44.5152 42.3837C44.6756 42.1404 44.7738 41.8615 44.8011 41.5714C44.8284 41.2813 44.7841 40.9889 44.672 40.72L44.1908 39.5971ZM20.8034 32.7208L23.3849 26.697C23.4344 26.5815 23.5168 26.4831 23.6218 26.4139C23.7267 26.3448 23.8497 26.308 23.9754 26.3081H32.024C32.1497 26.308 32.2726 26.3448 32.3776 26.4139C32.4826 26.4831 32.565 26.5815 32.6145 26.697L34.3763 30.8081H26.3122C26.1644 30.8102 26.0233 30.8704 25.9196 30.9756C25.8158 31.0809 25.7576 31.2228 25.7576 31.3706C25.7576 31.5184 25.8158 31.6603 25.9196 31.7656C26.0233 31.8708 26.1644 31.931 26.3122 31.9331H34.8584L35.196 32.7208C35.237 32.8186 35.2533 32.9249 35.2434 33.0305C35.2335 33.136 35.1979 33.2375 35.1395 33.326C35.0811 33.4145 35.0019 33.4872 34.9088 33.5379C34.8156 33.5885 34.7115 33.6154 34.6055 33.6162H21.3939C21.2879 33.6154 21.1837 33.5885 21.0906 33.5378C20.9975 33.4872 20.9183 33.4145 20.8599 33.326C20.8015 33.2375 20.7659 33.136 20.756 33.0305C20.7461 32.9249 20.7624 32.8186 20.8034 32.7208ZM26.6995 41.7692C26.6416 41.8586 26.5622 41.9319 26.4685 41.9825C26.3747 42.033 26.2698 42.059 26.1633 42.0581H12.9517C12.8457 42.0573 12.7416 42.0304 12.6484 41.9797C12.5553 41.9291 12.4761 41.8564 12.4177 41.7679C12.3594 41.6794 12.3237 41.5779 12.3138 41.4724C12.304 41.3668 12.3202 41.2605 12.3612 41.1627L14.943 35.1395C14.9923 35.0238 15.0746 34.9253 15.1796 34.856C15.2845 34.7868 15.4075 34.7499 15.5332 34.75H23.5818C23.7076 34.7499 23.8306 34.7868 23.9356 34.856C24.0406 34.9253 24.1229 35.0239 24.1723 35.1395L25.9322 39.2456H17.8747C17.7269 39.2477 17.5858 39.3079 17.4821 39.4132C17.3783 39.5184 17.3201 39.6603 17.3201 39.8081C17.3201 39.956 17.3783 40.0978 17.4821 40.2031C17.5858 40.3084 17.7269 40.3685 17.8747 40.3706H26.4143C26.54 40.754 27.0043 41.374 26.6995 41.7692ZM43.5838 41.7692C43.526 41.8586 43.4465 41.9319 43.3528 41.9825C43.2591 42.033 43.1541 42.059 43.0477 42.0581H29.8361C29.7301 42.0573 29.6259 42.0304 29.5328 41.9797C29.4396 41.9291 29.3604 41.8564 29.3021 41.7679C29.2437 41.6794 29.208 41.5779 29.1982 41.4724C29.1883 41.3668 29.2046 41.2605 29.2456 41.1627L31.8273 35.1395C31.8767 35.0238 31.9589 34.9253 32.0639 34.856C32.1688 34.7868 32.2918 34.7499 32.4176 34.75H40.4662C40.5919 34.7499 40.7149 34.7868 40.8199 34.856C40.9249 34.9253 41.0072 35.0239 41.0567 35.1395L42.8165 39.2456H34.7497C34.6019 39.2477 34.4608 39.3079 34.3571 39.4132C34.2533 39.5184 34.1951 39.6603 34.1951 39.8081C34.1951 39.956 34.2533 40.0978 34.3571 40.2031C34.4608 40.3084 34.6019 40.3685 34.7497 40.3706H43.2987C43.4244 40.754 43.8887 41.374 43.5838 41.7692ZM15.6247 21.8081C15.477 21.8103 15.336 21.8705 15.2323 21.9758C15.1286 22.081 15.0705 22.2229 15.0705 22.3706C15.0705 22.5184 15.1286 22.6602 15.2323 22.7655C15.336 22.8707 15.477 22.9309 15.6247 22.9331C16.6686 22.9343 17.6694 23.3496 18.4076 24.0877C19.1457 24.8259 19.561 25.8267 19.5622 26.8706C19.5643 27.0184 19.6245 27.1595 19.7297 27.2633C19.835 27.367 19.9769 27.4252 20.1247 27.4252C20.2725 27.4252 20.4144 27.367 20.5197 27.2633C20.6249 27.1595 20.6851 27.0184 20.6872 26.8706C20.6884 25.8267 21.1036 24.8259 21.8418 24.0877C22.58 23.3496 23.5808 22.9343 24.6247 22.9331C24.7725 22.931 24.9135 22.8708 25.0173 22.7656C25.1211 22.6603 25.1793 22.5184 25.1793 22.3706C25.1793 22.2228 25.1211 22.0809 25.0173 21.9756C24.9135 21.8704 24.7725 21.8102 24.6247 21.8081C23.5808 21.8069 22.5799 21.3917 21.8418 20.6535C21.1036 19.9153 20.6884 18.9145 20.6872 17.8706C20.685 17.7229 20.6248 17.5819 20.5195 17.4782C20.4143 17.3745 20.2724 17.3164 20.1247 17.3164C19.9769 17.3164 19.8351 17.3745 19.7299 17.4782C19.6246 17.5819 19.5644 17.7229 19.5622 17.8706C19.561 18.9145 19.1457 19.9154 18.4076 20.6535C17.6694 21.3917 16.6686 21.8069 15.6247 21.8081ZM20.1247 20.1887C20.6091 21.1241 21.3715 21.8863 22.3068 22.3706C21.3715 22.8549 20.6091 23.6172 20.1247 24.5525C19.6403 23.6172 18.8779 22.8549 17.9425 22.3706C18.8779 21.8863 19.6403 21.1241 20.1247 20.1887ZM12.2497 17.0269C12.9208 17.0276 13.5642 17.2945 14.0387 17.7691C14.5133 18.2436 14.7802 18.887 14.7809 19.5581C14.783 19.7059 14.8432 19.847 14.9485 19.9508C15.0537 20.0545 15.1956 20.1127 15.3434 20.1127C15.4913 20.1127 15.6331 20.0545 15.7384 19.9508C15.8437 19.847 15.9039 19.7059 15.9059 19.5581C15.9067 18.887 16.1736 18.2436 16.6481 17.7691C17.1227 17.2945 17.7661 17.0276 18.4372 17.0269C18.5849 17.0247 18.7259 16.9645 18.8296 16.8592C18.9333 16.754 18.9914 16.6121 18.9914 16.4644C18.9914 16.3166 18.9333 16.1748 18.8296 16.0695C18.7259 15.9643 18.5849 15.9041 18.4372 15.9019C17.7661 15.9011 17.1227 15.6342 16.6482 15.1597C16.1736 14.6851 15.9067 14.0417 15.906 13.3706C15.9038 13.2229 15.8436 13.0819 15.7383 12.9782C15.6331 12.8745 15.4912 12.8164 15.3435 12.8164C15.1957 12.8164 15.0539 12.8745 14.9486 12.9782C14.8434 13.0819 14.7832 13.2229 14.781 13.3706C14.7802 14.0417 14.5133 14.6851 14.0388 15.1597C13.5642 15.6342 12.9208 15.9011 12.2497 15.9019C12.102 15.9041 11.961 15.9643 11.8573 16.0695C11.7536 16.1748 11.6955 16.3166 11.6955 16.4644C11.6955 16.6121 11.7536 16.7539 11.8573 16.8592C11.961 16.9644 12.102 17.0247 12.2497 17.0269ZM15.3434 15.3174C15.6359 15.7801 16.0277 16.1719 16.4904 16.4644C16.0277 16.7568 15.6359 17.1486 15.3434 17.6114C15.051 17.1486 14.6592 16.7568 14.1965 16.4644C14.6592 16.1719 15.051 15.7801 15.3434 15.3174ZM12.2497 28.2769C12.9208 28.2776 13.5642 28.5445 14.0387 29.0191C14.5133 29.4936 14.7802 30.137 14.7809 30.8081C14.783 30.9559 14.8432 31.097 14.9485 31.2008C15.0537 31.3045 15.1956 31.3627 15.3434 31.3627C15.4913 31.3627 15.6331 31.3045 15.7384 31.2008C15.8437 31.097 15.9039 30.9559 15.9059 30.8081C15.9067 30.137 16.1736 29.4936 16.6481 29.0191C17.1227 28.5445 17.7661 28.2776 18.4372 28.2769C18.5849 28.2747 18.7259 28.2145 18.8296 28.1092C18.9333 28.004 18.9914 27.8621 18.9914 27.7144C18.9914 27.5666 18.9333 27.4248 18.8296 27.3195C18.7259 27.2143 18.5849 27.1541 18.4372 27.1519C17.7661 27.1511 17.1227 26.8842 16.6482 26.4097C16.1736 25.9351 15.9067 25.2917 15.906 24.6206C15.9038 24.4729 15.8436 24.3319 15.7383 24.2282C15.6331 24.1245 15.4912 24.0664 15.3435 24.0664C15.1957 24.0664 15.0539 24.1245 14.9486 24.2282C14.8434 24.3319 14.7832 24.4729 14.781 24.6206C14.7802 25.2917 14.5133 25.9351 14.0388 26.4097C13.5642 26.8842 12.9208 27.1511 12.2497 27.1519C12.102 27.1541 11.961 27.2143 11.8573 27.3195C11.7536 27.4248 11.6955 27.5666 11.6955 27.7144C11.6955 27.8621 11.7536 28.0039 11.8573 28.1092C11.961 28.2144 12.102 28.2747 12.2497 28.2769ZM15.3434 26.5674C15.6359 27.0301 16.0277 27.4219 16.4904 27.7144C16.0277 28.0068 15.6359 28.3986 15.3434 28.8614C15.051 28.3986 14.6592 28.0068 14.1965 27.7144C14.6592 27.4219 15.051 27.0301 15.3434 26.5674ZM34.7497 25.1831C34.8236 25.1832 34.8967 25.1687 34.965 25.1404C35.0332 25.1121 35.0952 25.0706 35.1474 25.0183L36.7385 23.4275C36.8405 23.3213 36.8969 23.1794 36.8954 23.0321C36.8939 22.8848 36.8348 22.744 36.7307 22.6399C36.6265 22.5358 36.4857 22.4766 36.3384 22.4752C36.1912 22.4737 36.0492 22.5301 35.943 22.6321L34.352 24.2229C34.2751 24.3022 34.2231 24.4023 34.2024 24.5109C34.1817 24.6194 34.1932 24.7316 34.2355 24.8336C34.2777 24.9357 34.349 25.0232 34.4403 25.0853C34.5317 25.1474 34.6392 25.1814 34.7497 25.1831ZM32.8389 24.1449C32.983 24.1833 33.1364 24.1629 33.2655 24.0884C33.3946 24.0139 33.4889 23.8912 33.5277 23.7472L34.1103 21.5736C34.1489 21.4295 34.1287 21.276 34.0541 21.1468C33.9795 21.0176 33.8567 20.9233 33.7126 20.8847C33.5685 20.8461 33.415 20.8663 33.2858 20.9409C33.1566 21.0155 33.0623 21.1384 33.0237 21.2824L32.4412 23.4561C32.422 23.5274 32.4171 23.6019 32.4268 23.6751C32.4364 23.7483 32.4604 23.8189 32.4973 23.8829C32.5342 23.9469 32.5834 24.003 32.642 24.0479C32.7006 24.0929 32.7675 24.1258 32.8389 24.1449ZM35.2254 26.5312C35.2642 26.6751 35.3585 26.7978 35.4876 26.8724C35.6168 26.9469 35.7702 26.9672 35.9142 26.9288L38.0876 26.3466C38.2317 26.308 38.3545 26.2137 38.4291 26.0845C38.5037 25.9553 38.5239 25.8018 38.4853 25.6577C38.4467 25.5136 38.3524 25.3908 38.2233 25.3162C38.0941 25.2416 37.9406 25.2214 37.7965 25.26L35.6231 25.8423C35.5517 25.8614 35.4848 25.8943 35.4262 25.9393C35.3676 25.9843 35.3184 26.0403 35.2815 26.1043C35.2446 26.1683 35.2206 26.2389 35.211 26.3121C35.2013 26.3854 35.2063 26.4598 35.2254 26.5312Z" fill="#D1D4DC" stroke="#D1D4DC" stroke-width="0.25"/>
</svg>
